<?xml version="1.0" encoding="utf-8"?>
<!-- Generator: Adobe Illustrator 16.0.4, SVG Export Plug-In . SVG Version: 6.00 Build 0)  -->
<!DOCTYPE svg PUBLIC "-//W3C//DTD SVG 1.1//EN" "http://www.w3.org/Graphics/SVG/1.1/DTD/svg11.dtd">
<svg version="1.1" id="Capa_1" xmlns="http://www.w3.org/2000/svg" xmlns:xlink="http://www.w3.org/1999/xlink" x="0px" y="0px"
	 width="32.004px" height="25px" viewBox="0 0 32.004 25" enable-background="new 0 0 32.004 25" xml:space="preserve">
<g>
	<path d="M27.373,6.044l1.4-1.401c0.395-0.394,0.399-1.027,0.008-1.42c-0.391-0.391-1.021-0.394-1.422,0.006l-1.4,1.401
		c-0.395,0.395-0.4,1.028-0.007,1.421C26.343,6.442,26.973,6.445,27.373,6.044z"/>
	<path d="M21,4c0.553,0,1-0.443,1-1.01V1.009C22,0.452,21.557,0,21,0c-0.553,0-1,0.443-1,1.009v1.982C20,3.548,20.443,4,21,4z"/>
	<path d="M28.004,11.004c0,0.552,0.443,1,1.01,1h1.98c0.558,0,1.01-0.444,1.01-1c0-0.552-0.443-1-1.01-1h-1.98
		C28.456,10.004,28.004,10.448,28.004,11.004z"/>
	<path d="M27.586,13.212c-0.172-0.455-0.393-0.887-0.656-1.287C26.977,11.623,27,11.314,27,11c0-3.313-2.688-6-6-6
		c-1.533,0-2.932,0.575-3.992,1.521C15.576,5.561,13.854,5,12,5c-4.904,0-8.894,3.923-8.998,8.803C1.208,14.842,0,16.783,0,19
		c0,3.312,2.687,6,6,6h20c3.312,0,6-2.693,6-6C32,16.234,30.13,13.907,27.586,13.212z M21.5,9c-0.641,0-1.26,0.093-1.844,0.265
		c-0.319-0.514-0.688-0.994-1.1-1.432C19.23,7.311,20.079,7,21,7c1.839,0,3.389,1.242,3.855,2.932C23.876,9.34,22.729,9,21.5,9z"/>
</g>
</svg>
