<?xml version="1.0" encoding="utf-8"?>
<!-- Generator: Adobe Illustrator 16.0.4, SVG Export Plug-In . SVG Version: 6.00 Build 0)  -->
<!DOCTYPE svg PUBLIC "-//W3C//DTD SVG 1.1//EN" "http://www.w3.org/Graphics/SVG/1.1/DTD/svg11.dtd">
<svg version="1.1" id="Capa_1" xmlns="http://www.w3.org/2000/svg" xmlns:xlink="http://www.w3.org/1999/xlink" x="0px" y="0px"
	 width="22.006px" height="22.006px" viewBox="0 0 22.006 22.006" enable-background="new 0 0 22.006 22.006" xml:space="preserve">
<g>
	<path d="M4.63,6.045c0.394,0.393,1.028,0.399,1.421,0.006c0.39-0.39,0.393-1.021-0.007-1.421l-1.4-1.4
		C4.249,2.835,3.617,2.829,3.223,3.223c-0.391,0.39-0.394,1.02,0.007,1.421L4.63,6.045z"/>
	<path d="M20.997,10.003h-1.98c-0.559,0-1.011,0.444-1.011,1c0,0.553,0.443,1,1.011,1h1.98c0.559,0,1.009-0.443,1.009-1
		C22.006,10.451,21.562,10.003,20.997,10.003z"/>
	<path d="M4,11.003c0-0.552-0.444-1-1.01-1H1.009c-0.558,0-1.009,0.444-1.009,1c0,0.553,0.443,1,1.009,1H2.99
		C3.548,12.003,4,11.56,4,11.003z"/>
	<path d="M11.003,5c-3.313,0-6,2.687-6,6c0,3.313,2.687,6,6,6c3.312,0,6-2.687,6-6C17.003,7.687,14.315,5,11.003,5z M11.003,15
		c-2.209,0-4-1.791-4-4s1.791-4,4-4s4,1.791,4,4S13.212,15,11.003,15z"/>
	<path d="M4.63,15.962l-1.4,1.4c-0.395,0.395-0.401,1.027-0.007,1.421c0.391,0.39,1.021,0.393,1.421-0.007l1.4-1.4
		c0.395-0.395,0.401-1.027,0.007-1.421C5.66,15.563,5.03,15.562,4.63,15.962z"/>
	<path d="M17.376,6.045l1.4-1.401c0.395-0.395,0.399-1.027,0.007-1.421c-0.392-0.39-1.021-0.393-1.421,0.007l-1.4,1.4
		c-0.395,0.395-0.4,1.028-0.007,1.421C16.347,6.441,16.976,6.444,17.376,6.045z"/>
	<path d="M11.003,18.006c-0.553,0-1,0.444-1,1.011v1.98c0,0.559,0.444,1.009,1,1.009c0.553,0,1-0.442,1-1.009v-1.98
		C12.003,18.458,11.56,18.006,11.003,18.006z"/>
	<path d="M17.376,15.962c-0.395-0.395-1.027-0.4-1.421-0.007c-0.39,0.392-0.394,1.021,0.007,1.421l1.4,1.4
		c0.395,0.395,1.027,0.399,1.421,0.007c0.391-0.39,0.394-1.021-0.007-1.421L17.376,15.962z"/>
	<path d="M11.003,4c0.553,0,1-0.443,1-1.01V1.01c0-0.558-0.443-1.01-1-1.01c-0.553,0-1,0.444-1,1.01v1.98
		C10.003,3.548,10.447,4,11.003,4z"/>
</g>
</svg>
