<?xml version="1.0" encoding="iso-8859-1"?>
<!-- Generator: Adobe Illustrator 16.0.0, SVG Export Plug-In . SVG Version: 6.00 Build 0)  -->
<!DOCTYPE svg PUBLIC "-//W3C//DTD SVG 1.1//EN" "http://www.w3.org/Graphics/SVG/1.1/DTD/svg11.dtd">
<svg version="1.1" id="Capa_1" xmlns="http://www.w3.org/2000/svg" xmlns:xlink="http://www.w3.org/1999/xlink" x="0px" y="0px"
	 width="28.806px" height="24.385px" viewBox="0 0 28.806 24.385" style="enable-background:new 0 0 28.806 24.385;"
	 xml:space="preserve">
<path style="fill:#000000;" d="M23.798,6.488C23.697,2.889,20.748,0,17.123,0c-3.422,0-6.244,2.576-6.635,5.893
	c-0.58-0.363-1.266-0.576-2.004-0.576c-2.086,0-3.777,1.691-3.777,3.777c0,0.158,0.03,0-0.648,0C1.816,9.094,0,10.912,0,13.15
	c0,2.041,1.508,3.73,3.471,4.016c0.153,0.027,0.312,0.043,0.474,0.043h19.147c0.066,0,0.088-0.008,0.092-0.014
	c0.084,0.004,0.166,0.014,0.254,0.014c2.965,0,5.369-2.406,5.369-5.371C28.806,8.994,26.595,6.674,23.798,6.488z"/>
<path style="fill:#000000;" d="M18.148,19.166c-0.053-0.15-0.107-0.314-0.156-0.492c-0.049,0.174-0.1,0.33-0.152,0.479
	c-0.016,0.043-0.033,0.084-0.051,0.127c-0.037,0.1-0.076,0.197-0.117,0.289c-0.021,0.043-0.041,0.088-0.062,0.131
	c-0.041,0.084-0.082,0.17-0.125,0.254c-0.02,0.035-0.041,0.074-0.061,0.111c-0.053,0.096-0.107,0.191-0.162,0.287
	c-0.209,0.361-0.441,0.742-0.695,1.26c-0.584,1.188,0.281,2.383,1.426,2.383s2.008-1.195,1.426-2.383
	C18.902,20.561,18.478,20.078,18.148,19.166z"/>
<path style="fill:#000000;" d="M12.722,18.852c-0.064-0.174-0.125-0.361-0.182-0.57c-0.055,0.199-0.113,0.379-0.174,0.547
	c-0.02,0.059-0.041,0.105-0.061,0.16c-0.043,0.107-0.086,0.215-0.131,0.316c-0.025,0.055-0.051,0.109-0.076,0.162
	c-0.045,0.094-0.088,0.184-0.135,0.271c-0.027,0.051-0.055,0.104-0.082,0.152c-0.057,0.102-0.111,0.201-0.172,0.301
	c-0.24,0.42-0.51,0.857-0.807,1.461c-0.668,1.361,0.324,2.732,1.637,2.732s2.303-1.371,1.637-2.732
	C13.585,20.449,13.101,19.896,12.722,18.852z"/>
<path style="fill:#000000;" d="M8.114,17.393c-0.061,0.215-0.125,0.395-0.194,0.561c-0.012,0.025-0.021,0.055-0.034,0.08
	c-0.068,0.156-0.141,0.299-0.22,0.439c-0.017,0.029-0.034,0.061-0.052,0.092c-0.167,0.289-0.35,0.584-0.556,1.004
	c-0.433,0.879,0.208,1.764,1.056,1.764c0.847,0,1.487-0.885,1.056-1.764C8.725,18.662,8.37,18.328,8.114,17.393z"/>
<g>
</g>
<g>
</g>
<g>
</g>
<g>
</g>
<g>
</g>
<g>
</g>
<g>
</g>
<g>
</g>
<g>
</g>
<g>
</g>
<g>
</g>
<g>
</g>
<g>
</g>
<g>
</g>
<g>
</g>
</svg>
